/* XPM */
static char *Y2F2ZV8y[] = {
/* columns rows colors chars-per-pixel */
"32 32 8 1 ",
"  c black",
". c #0F070D",
"X c #171217",
"o c #252028",
"O c #37434F",
"+ c #5F6879",
"@ c #8691A2",
"# c #D5D4DA",
/* pixels */
"@@@@@@@@@@@+++++++@@@@@@@@      ",
"o##@@@@@@@@+++++++++++@@@@@@@@++",
"ooo#####@+O++@@@@@+++++##@@@@@@+",
"oooOooO+++O@@@#@@@@@+++Ooo###@+O",
"ooOOooO+++OOooo###@@@@@OooO+++oO",
"ooOOooO+++OOoooOOOOO+++OooO+++oO",
"ooOOooOO++OOOooOOOOO+++oooOO++oO",
"ooOOooOO++OOOooOOOOO+++oooOO++OO",
"ooOOooOO++OOOooOOOoOO++oooOOO+OO",
"ooOOooOOO+OO@@@@OOoOO+OOoOOOO+XO",
"ooOOOoOOO@@@@@@@@ooOO+OOoOOOO+XO",
"ooOOOOOOo@##@@@@@@@@O+OOXOOOOXXX",
"XoOoOOOoXooO####@@@OoOOXXOOOOXXX",
"XXOooOooXoooOO+++++OoooXXXOOOXXX",
"XXooooooXoooOOO++++OoooXXXXXXXXX",
"XXXooooXXXooooO+++OOoXXXXXXXXXXX",
"XXXoooXXXXooXoOO++OXXXXooXXXXXXX",
"XXXXXXXXXXooXoooO+OXXXooooooooXX",
"XXXX.XXXXXXoXXooO+oXX.XoooooX..X",
"XXXX.XXXXXXXXXXXXOo....XXXXX...X",
"X......XXXoooooXXO......XXX.....",
"........oooooXXXXXXX.....XX.....",
"..XXXX....XXXXX.X..XXX...XX.....",
"...XXX.....XXX......XXX...X.....",
"....XXX....XXX.......XX...X.....",
"......X....XXX.......X..........",
"......X....XXX.......X..........",
"............XX..................",
"................................",
"................................",
"................................",
"................................"
};
