/* XPM */
static char *Y2F2ZV8x[] = {
/* columns rows colors chars-per-pixel */
"32 32 8 1 ",
"  c black",
". c #0F070D",
"X c #171217",
"o c #252028",
"O c #37434F",
"+ c #5F6879",
"@ c #8691A2",
"# c #D5D4DA",
/* pixels */
"@@@@@@@@@@@++++++++++++++       ",
"@@@@@@@@@@@@@@@+++@@@@@@#O@@@@@#",
"o+O+@@######@@@@@@@#####O@@####@",
"o+O++OOO+##########++OoOOO+++OOO",
"o+O++OOO++OOOOOOOO+++OoOOO+++OOO",
"o+O++OOO++OOOOOOXO+++OoOOO+++OOO",
"o+O++OOO++OoOOOOXO+++OoOOO+++OOo",
"o+O++OOO++OoOOOXXO++OOoOOO+++OOo",
"o+O++OOO++OoOOOXXO++OOooOO++oOOo",
"o+O++oOO++XoOOOXXO++OoooOO++oOoo",
"o+O++oOO++XoooOXXO+oooooOO++oOoo",
"o+O+OoOO+OXooooXXO+ooooXOO+ooooo",
"o+oOOoOo+XXoooooXXoooooXXO+ooooo",
"o+oOOooo+XXoo+++XXXoooXXXXXXoooo",
"o+oOOoooXXX+++++++++ooXXXXXXooXo",
"ooooOooXX+++++++++++++XXXXXXooXo",
"XXooooo++++++++++++++ooooXXXXXXo",
"ooOOOOO+++++++@@@@OOOooooXXXXXXo",
"oOOOO+++++@@@@oOOOOOooXXXXXXXXXX",
"ooOOOOOOOOOOOOooOOoo.........XXX",
"oXXooXoooOOOOOooOOoXXXXXXX...XXX",
"oXXooXoooo.OooooOOoXX..........X",
"oX.ooXXXXo.OXoooOoo....XXXXX...X",
"oX.oXXXXXo.OXXXoOo.XXoXXXXXoo..X",
"XX.oX.XXXo..XXXXXo..XXoooooX...X",
"XX.XX.X.XX..XXX.........XXXX....",
"XX.XX...XX..XXX.........XXX.....",
".X.XX...XX...XX.........XXX.....",
"....X...XX...X...........X......",
".........................X......",
".........................X......",
"................................"
};
