/* XPM */
static char *Y2F2ZV8z[] = {
/* columns rows colors chars-per-pixel */
"32 32 8 1 ",
"  c black",
". c #0F070D",
"X c #171217",
"o c #252028",
"O c #37434F",
"+ c #5F6879",
"@ c #8691A2",
"# c #D5D4DA",
/* pixels */
"@@@@@@@@@@@+++++++@@@@@@@@@@@   ",
"++@@@###@@@@@@+++++++O+##@@@@@++",
"oooOO+++#####@@@@@OOO++++####@@@",
"oOOOOO+++ooo@@@@OO@@@+++++@@@##@",
"ooooOOO++oooO++oo@######@@@OO+oo",
"oOooOOO++oooO++ooOoO++++++OOO+oo",
"oOooOOO++oooO++ooOoO+++++OOOO+oo",
"oOooOOOO+oooO++ooooOOO+++OOOO+oo",
"oOOooOOO+oooO++oooooOO+++OOOO+oo",
"oOOooOOO+oooO++OooooOOO++OOOO+oo",
"oOOoooOOOoooOO+OooooOOO++OOOO+oo",
"ooOoooOOOoooOO+OOOooOOO++XOO++oo",
"ooOXooOOOoooOO+OOOOoOOO++XOO++oo",
"ooOXooOOOoooOO+oooOOOOO++XOO++oo",
"ooOXooXOOoooOO+oXoooOOO+OXXOO+oo",
"ooOXooXOOooXOO+XXXooOOO+OXXOO+oo",
"oooXooXOOooXOOOXXXooOOOOOXXOOOoo",
"oooXXXXXXooXOOOXXXoooooOOXXOOOXX",
"XooXXXXXXooXOOOXXXXooooooXXXXXXX",
"XooXXXXXXooXXOXXXXXXXXXXXXXXXXXX",
"XooXXX..XXXXXXXXXXXXXXXXXXXXXXXX",
"XXoXXXX..XXXXXXXXXXXXXooXXXXXXXX",
"XXXXXXXX.oooooooooooooXXXX..XXXX",
"XXXXXXOoooooOOOOOOOOXXXXXX..XXXX",
"XXX...oOOOOOXXXXXXX..XXXX.....XX",
".X....oXXXXXXXXXXX..XXXX......XX",
"......oXXXX.....XX..XXX........X",
"......oXX........XX.XXX.........",
"......XX..........X.XX..........",
"......XX........................",
".......X........................",
"................................"
};
