/* XPM */
static char *Y2F2ZV80[] = {
/* columns rows colors chars-per-pixel */
"32 32 8 1 ",
"  c black",
". c #0F070D",
"X c #171217",
"o c #252028",
"O c #37434F",
"+ c #5F6879",
"@ c #8691A2",
"# c #D5D4DA",
/* pixels */
"+@@@@@@@@@@@@@@@@+@@@@@@@@@@@   ",
"++#@@@##O@@@@@@@@@@@+O+##@@@@@@#",
"oo#@@@+OOoo####@@@@OO@@@@@@@@@@#",
"ooo#@@OOooooOOO@##OO@@@@@@@####+",
"O++#@@@OoooOO++@OOo+@######++@+o",
"oOOO#@@OooOO+++@OOo++@@@@++++@+o",
"oOOO+@@OoOOO++@+Ooo+++@@@++O+@oo",
"OOo+++@@OOO+O+@+Ooo+OO@@o++O+@oo",
"ooo++OO@oO+OO++OOo++O@@@o+OO@+oo",
"oOOOOOOooOOOO++OOo+OO@@Oo+OO@+oo",
"XOOOooOoXXOoO++OXo+OO@@Oo+OO@+oo",
"XXOoooOXXXOoo+oOXo+O+@OOoOOO@+oo",
"XXooooXXXXXoo+oOX++O+@OOoOO+@+oo",
"XXXXooXXXXXooooXX++++@OOoOO+++oo",
"XXXXooXXXXXooooXX+++++OOooO++ooo",
"XXXXXoXX.XXXoooXX++++XOXXoO++ooo",
".XXXXoXX.XXXXooXX++++XOXXoo++ooX",
".XXXXXoX...XXXooXO++XXOXXXo++ooX",
".XXX..XX....XXooXO++X.XXXXo+ooX.",
".X..........XXXoXO++.XXXX.o+XoX.",
"......XX.....XooXOO+XXXX.Xo+XXX.",
".....XX......XoXXOO+XXX.XXo+XXX.",
"....XXX.....XooXXOO+XX.XXXooXXX.",
"....X.......XooXXoO+....XXooXXX.",
"............XXoXXoO.....XXoXXXX.",
"........oX..XXXXXoO......XXXXX..",
"......XXXoo....XXoo......XXXXX..",
"....XXXXXXoo.....oo.........XX..",
"....XXX...XXX.....o.........X...",
"............XX..............X...",
"................................",
"................................"
};
