/* XPM */
static char *cb9a7c3f595643aff8ec11d28edcdafeNLM82OHzJQduaY0c[] = {
/* columns rows colors chars-per-pixel */
"128 64 2 1 ",
"  c black",
". c white",
/* pixels */
"                                                                                                                                ",
"         .      . .    . .     .    .. .    ..      .       .    .       .                                   .    ...    .      ",
"         ..     . .   .....   ....  .. .   .. .     .      .      .    . . .    .                            .   ..  .   ..     ",
"         ..           .....  ...      ..   .. .           ..      ..   .....    .                           ..   ..  .   ..     ",
"         ..            . .   .....    .     ..            ..      ..    ...   .....         .....           .    ..  .   ..     ",
"         ..           .....    ...   ..    ... .          ..      ..   .....    .      .                   ..    ..  .   ..     ",
"                      .....  ....    . ..  .. .            .      .    . . .    .     ..            ..     .     ..  .   ..     ",
"         ..            . .     .     . ..   .. .            .    .       .            .             ..     .     .....   ..     ",
"                                                                                                                                ",
"                                                                                                                                ",
" ....   ....      ..  ....   ....   .....   ...   ....                    ..         ..     ....    ...   ....   ....   ....    ",
"     .      .    . .  ..     ..         .  ..  .  ..  .   ..     ..      ..           ..       ..  .. ..  .....  .....  .....   ",
"     .      .   .  .  ..     ..        .   ..  .  ..  .   ..     ..     ..    ....     ..     ..   .....  ..  .  ..  .  ..      ",
" .....  .....  ..  .  .....  .....    .    .....  .....                ..               ..   ..    ... .  .....  ....   ..      ",
" ..         .  .....      .  ..  .   ..    ..  .      .   ..      .     ..    ....     ..    ..    .....  ..  .  ..  .  ..      ",
" ..         .      .      .  ..  .   ..    ..  .      .   ..     ..      ..           ..           ..     ..  .  ..  .  ..      ",
" .....  .....      .  .....  .....   ..    .....   ....          .        ..         ..      ..     ...   ..  .  .....  .....   ",
"                                                                                                                                ",
"                                                                                                                                ",
" ....   ....   ....   ....   ..      .       .    ..     ..     .      .       ...   ....    ...   ....    ...   ....   ..      ",
" .....  .....  .....  .....  ..  .   ..      ..   ..  .  ..     .. ..  ..  .  .....  .....  .....  .....  .....  .....  ..  .   ",
" ..  .  ..     ..     ..     ..  .   ..      ..   ..  .  ..     .....  ... .  ..  .  ..  .  ..  .  ..  .  ..       .    ..  .   ",
" ..  .  ....   ....   ..     .....   ..      ..   ....   ..     ... .  .....  ..  .  .....  ..  .  ....   .....    .    ..  .   ",
" ..  .  ..     ..     .. ..  ..  .   ..      ..   ..  .  ..     ..  .  .. ..  ..  .  ..     .. ..  ..  .      .    .    ..  .   ",
" ..  .  ..     ..     ..  .  ..  .   ..      ..   ..  .  ..     ..  .  ..  .  ..  .  ..     .. ..  ..  .      .    .    ..  .   ",
" .....  .....  ..     .....  ..  .   ..     ...   ..  .  .....  ..  .  ..  .  .....  ..     .....  ..  .   ...     .    .....   ",
"                                                                                                                                ",
"                                                                                                                                ",
" ..     ..     ..     ..     .....   ...    .      ...     .            .            ..                           ...           ",
" ..  .  ..  .  ..  .  ..  .     ..   ..     .       ..    ...           ..           ..                .          ..            ",
" ..  .  ..  .  ..  .  ..  .     .    ..     ..      ..    . .            .     ...   ....   ....   .....  ....    ...   ....    ",
" ..  .  ... .   ...   ....     .     ..      .      ..                            .  ..  .  ..     ..  .  ..  .   ..    ..  .   ",
" ..  .  .....  ..  .  ..      .      ..      ..     ..                        .....  ..  .  ..     ..  .  .....   ..    .....   ",
" .. .   .. ..  ..  .  ..     ..      ..       .     ..                        ..  .  ..  .  ..     ..  .  ..      ..        .   ",
" ...    .   .  ..  .  ..     ....    ...      .    ...          .....         .....  .....  .....  .....  .....   ..    .....   ",
"                                                                                                                                ",
"                                                                                                                                ",
" ..      .       .    ..      .                                                        .                                        ",
" ..                   ..      ..                                                      ..                                        ",
" ....    .       .    ..  .   ..    .. .   ....    ...   ....   ....   .. .    ...    ...   ..     ..     ..     ..     ..      ",
" ..  .   ..      ..   ....    ..    .....  ..  .  ..  .  ..  .  ..  .  ....   ..      ..    ..  .  ..  .  ..  .  ..  .  ..  .   ",
" ..  .   ..      ..   ..  .   ..    ... .  ..  .  ..  .  .....  .....  ..     .....   ..    ..  .  ..  .  ... .   ...   .....   ",
" ..  .   ..      ..   ..  .   ..    ..  .  ..  .  ..  .  ..         .  ..         .   ..    ..  .  .. .   .....  ..  .      .   ",
" ..  .   ..     ...   ..  .   ..    ..  .  ..  .  .....  ..         .  ..      ...    ...   .....  ...    .. .   ..  .  .....   ",
"                                                                                                                                ",
"                                                                                                                                ",
"           ..    .    ..                                                                                                        ",
"          ..     .     ..                                                                                                       ",
" .....    ..     .     ..     .. .                                                                                              ",
"   ..    ...     .     ...   .....                                                                                              ",
"  ..      ..     .     ..    .. .                                                                                               ",
" ..       ..     .     ..                                                                                                       ",
" ....      ..    .    ..                                                                                                        ",
"                                                                                                                                ",
"                                                                                                                                ",
"                                                                                                                                ",
"                                                                                                                                ",
"                                                                                                                                ",
"                                                                                                                                ",
"                                                                                                                                ",
"                                                                                                                                ",
"                                                                                                                                ",
"                                                                                                                                ",
"                                                                                                                                "
};
