/* XPM */
static char *_ee497d5a7a44e94a72efb366196d256kg6zv3zQBMyORYpv[] = {
/* columns rows colors chars-per-pixel */
"64 64 61 1 ",
"  c None",
". c black",
"X c #070707",
"o c #0B0B0B",
"O c #0B1707",
"+ c #131313",
"@ c #1B1B1B",
"# c #13230B",
"$ c #17330F",
"% c #232323",
"& c #272727",
"* c #2F2F2F",
"= c #373F27",
"- c #373737",
"; c gray23",
": c #1F4317",
"> c #27531B",
", c #3F472B",
"< c #2F6323",
"1 c #37732B",
"2 c #474F33",
"3 c #5F4B37",
"4 c #53573B",
"5 c #434343",
"6 c gray28",
"7 c gray34",
"8 c #5B5B5B",
"9 c #775F4B",
"0 c #5B6347",
"q c #676B4F",
"w c #7B634F",
"e c #6F7357",
"r c gray39",
"t c gray42",
"y c #6F6F6F",
"u c #7B7F63",
"i c #777777",
"p c gray50",
"a c #8B735B",
"s c #937B63",
"d c #9B7F6B",
"f c #4B9F3F",
"g c #53AF47",
"h c #5BBF4F",
"j c #5FCF57",
"k c #9F8363",
"l c #9F876F",
"z c #A78F77",
"x c #AF977F",
"c c #838383",
"v c #8B8B8B",
"b c #939393",
"n c #979797",
"m c #9F9F9F",
"M c #B79F87",
"N c #BFA78F",
"B c #A7A7A7",
"V c gray67",
"C c gray70",
"Z c #B7B7B7",
"A c gray75",
/* pixels */
"                                                                ",
"                                                                ",
"                                                                ",
"                                                                ",
"                                                                ",
"                                                                ",
"                                                                ",
"                                                                ",
"                                                                ",
"                                                                ",
"                                                                ",
"                                                                ",
"                                                                ",
"                                                                ",
"                                                                ",
"                                                                ",
"                                                                ",
"                                                                ",
"                                                                ",
"                                                                ",
"                                                                ",
"                                                                ",
"                                                                ",
"                                                                ",
"                                                                ",
"                                                                ",
"                                                                ",
"                                                                ",
"                                                                ",
"                                                                ",
"                                                                ",
"                                                                ",
"                      qs00qq00qqeevmBVvcp                       ",
"                    pB0=##,,2<fhf1ueqrivVi2                     ",
"                    ZAy->1ghfghjhhf1>:8ip;@                     ",
"                    ZvnBxsssssqtrr447r86@.@                     ",
"                    Zuqqq00,,,,666;--@@.+@-                     ",
"                    Aldzlueq4422,=$%+.+@@@*                     ",
"                    ZMxMxluueeq044=;&##++@%                     ",
"                    mbmCnzsssuueeq002=#o+@-                     ",
"                    veuaqq000422,2,=*#O.@%;                     ",
"                    meq932,,=&%@+++oo+oo@*-                     ",
"                    Buuzaq42=&&@#+Oo.++++@-                     ",
"                    BuuNleeq0442,=$%+...+@;                     ",
"                    BuuNluueq042,=$%+...+@-                     ",
"                    Vuuxluueq042,=$%+...o@-                     ",
"                    Zldzluueq042,=$%+...X+*                     ",
"                    ZMxxzluuaeq044=;&#O+#.%                     ",
"                    mbBBxzsssuueeq002=#ooo*                     ",
"                    veuaqq000422,2,=*#O.oo*                     ",
"                    mew94,=-*&%@+++oo+oo@%%                     ",
"                    Busza42;*&&@#+Oo.++++@-                     ",
"                    BusNleeq0442,=$%+...+@-                     ",
"                    BusNlueeq042,=$%+...+@-                     ",
"                    Zdkxluueq042,=$%+...+@*                     ",
"                    ZxzMzuuuaeq044=;&#O++#%                     ",
"                    mzxBzdsssuueeq002=#o+@*                     ",
"                    veuaqq000422,2,=*#O.+%-                     ",
"                    meq932,=*&%@+++oo+o.+%*                     ",
"                    Buuzs045**&@#+Oo.++.+@*                     ",
"                    Bduxlueq0042,=$%+...+@-                     ",
"                    bluzzuuaqq0422=*%...+o*                     ",
"                    euaauaww7422,,=&%ooo@.%                     ",
"                      4444*%%%++++......%                       "
};
