/* XPM */
static char *_813b9e6b55147289fd4aba453988439G1XYvuXQZ8Xmxy7M[] = {
/* columns rows colors chars-per-pixel */
"32 32 13 1 ",
"  c #4F2736",
". c #3B1D2D",
"X c #2D0D1D",
"o c #A25B45",
"O c #B1664B",
"+ c #D58C56",
"@ c #E3A569",
"# c #8B4A3E",
"$ c #EEB47A",
"% c #865466",
"& c #653444",
"* c #774353",
"= c white",
/* pixels */
" . . . . . . . . . . . . . . . .",
"XoO++@+@@@@@+@+@@@@@+@+@@@@++OoX",
".#O@$$$$$$$$$@@@$$$$@@$$$$$$@O#X",
".%%OOOOOOOOOOOOOOOoOoooOoOoOO#&X",
" %%OOOOOOOoOOoOooo##ooOoOOOOO&&X",
".%*OO.&&&&&&&&&&&&&&&&&&&&&OO& X",
" %%OO&@@$$$$$+++++@$$@$@@+&oO  X",
".%*OO&+.&&&*&&oOoO.&&&&&&O&Oo&&X",
" **Oo&+&+@@@+*OOOo&@@@@+*o*OO&&X",
".%*OO&+&+&&*O*O+O+&+.&&O&O&Oo&&X",
".**OO&+&O&$&O&+@+@&+&$#O*O*OO&&X",
".**OO&+&O*oo+*@$@$&O&Oo+&O&OO& X",
".*%OO&O&OO+++&$$$$&O++++*o*OO&&X",
".**OO&&&&&&&&&&&&&&&&&&&&&&OO& X",
".*%Oo&+@$$$$$$$$$$$$$$$$@+*OO&&X",
"X**oO&+#oooooooooooooooo#+*OO* X",
".**Oo*+oOoOOOOOoOoOOOOOOo+*OO&&X",
".**oO&+&&&&&&&&&&&&&&&&&&+*Oo*&X",
".*%Oo&+&$+*$*+O&*O+&$&$+*+*OO&&X",
".%*Oo&+&OO&+&@+&&+$&O&OO&+&OO*&X",
" *%oo&+&Oo*O*$@&&@$&o&Oo*+*Oo&&X",
".%*o#&+&  * &$$&&$$& &  &+&OO&&X",
" %%Oo&+$$$$O&+$oo$+&+@$$$O*oO&&X",
".*%Oo&O&&&&+&O+@@+o&O.&&&+&Oo& X",
" **oO&+&*&*O&#OOOO#&+&*&*O*Oo&&X",
".*%Oo&OooOOO&      *OoOOOO*oo& X",
".**OO&      &&&&&&&&      *oo &X",
".%*OOOoOoOOOOOoOOOOOoOOooOOo#& X",
" **OOoOoOoOoOOOoOoOOOOOOOo#o#&&X",
".*&&&& & & &&& &   & & &&&&&  &X",
".&& & & & &    .    & & &      X",
"X.X.X.XXX.X.X.X.XXXXXXX.X.X...XX"
};
