/* XPM */
static char *_c1dc7ec913c4ab5b0e9ec85e90272e5x7kogBEMVDZJnX6S[] = {
/* columns rows colors chars-per-pixel */
"32 32 7 1 ",
"  c #3B1D2D",
". c #2D0D1D",
"X c #653444",
"o c #8B4A3E",
"O c #4F2736",
"+ c #A25B45",
"@ c white",
/* pixels */
" . . . . . . . . . . . . . . . .",
".XXooooooooooooooooooooooooooXX.",
".OXooooooooooooooooooooooooooXO.",
".OOXXXXXXXXXXXXXXXXXXXXXXXXXXO .",
" OOXXXXXXXXXXXXXXXXXXXXXXXXXX  .",
".OOXX.                     XX  .",
" OOXX oo+++oo +++oOoo+++oo XX  .",
".OOXX o.   OXOXXXX o.    X XX  .",
" OOXX o OOOOXOXXXXOo  O OX XX  .",
".OOXX o +ooOXOXXXX o +oo X XX  .",
".OOXX o oOX X XXXXOo oOXOX XX  .",
".OOXX o XXXOXOXXXX o XXX X XX  .",
".OOXX         XXXX         XX  .",
".OOXX ++oo o++++++++oO++oo XX  .",
".OOXX + OXOo+++o+o+oo + OX XX  .",
".OOXX oOOXOoX  XX. XoOoOOX XXO .",
".OOXX XXXXOXX OXX OXX XXXX XX  .",
".OOXX     O          O     XXO .",
".OOXX XooooooooooooooooooX XX  .",
".OOXX Oo++++++++++++++++oO XXO .",
" OOXX OXXOOOOOOOOOOOOOOOX  XX  .",
".OOXX Ooo+++++++++++++ooX  XX  .",
" OOXX O OXXXXXXXXXXXXXXO O XX  .",
".OOXX OO OXXXXXXXXXXXXO OO XX  .",
" OOXX OOO OXXXXXXXXXXO OOO XX  .",
".OOXX OOOO            OOOO XX  .",
".OOXX......................XX  .",
".OOXXXXXXXXXXXXXXXXXXXXXXXXXX  .",
" OOXXXXXXXXXXXXXXXXXXXXXXXXXX  .",
".O                             .",
".              .               .",
"................................"
};
