/* XPM */
static char *aa4e8b7d4c1844dc95b4764728cde90aFYC2cgcf2TBl0ji2[] = {
/* columns rows colors chars-per-pixel */
"32 32 7 1 ",
"  c #3B1D2D",
". c #2D0D1D",
"X c #653444",
"o c #8B4A3E",
"O c #4F2736",
"+ c #A25B45",
"@ c white",
/* pixels */
" . . . . . . . . . . . . . . . .",
".XXooooooooooooooooooooooooooXX.",
".OXooooooooooooooooooooooooooXO.",
".OOXXXXXXXXXXXXXXXXXXXXXXXXXXO .",
" OOXXXXXXXXXXXXXXXXXXXXXXXXXX  .",
".OOXX.                     XX  .",
" OOXX +++++++ooooo+++++++o XX  .",
".OOXX o.   O  XXXX.      X XX  .",
" OOXX o o+++oOXXXX ++++oOXOXX  .",
".OOXX o o  OXOXoXo o.  X X XX  .",
".OOXX o X + X o+o+ o +OXOXOXX  .",
".OOXX o XOXXoO++++ X XXo X XX  .",
".OOXX X XXooo ++++ XooooOXOXX  .",
".OOXX                      XX  .",
".OOXX o++++++++++++++++++oOXX  .",
".OOXX oOXXXXXXXXXXXXXXXXOoOXXO .",
".OOXXOoXXXXXXXXXXXXXXXXXXoOXX  .",
".OOXX o                  oOXXO .",
".OOXX o +oO+OoX OXo + +oOoOXX  .",
".OOXX o XX o +o  o+ X XX o XXO .",
" OOXX o XXOXO++  ++ X XXOoOXX  .",
".OOXX o   O  ++  ++      o XX  .",
" OOXX o++++X o+XX+o o++++XOXX  .",
".OOXX X    o Xo++oX X.   o XX  .",
" OOXX o O OX OXXXXO o O OXOXX  .",
".OOXX XXXXXX       OXXXXXXOXX  .",
".OOXX                     OXX  .",
".OOXXXXXXXXXXXXXXXXXXXXXXXXXX  .",
" OOXXXXXXXXXXXXXXXXXXXXXXXXXX  .",
".O                             .",
".              .               .",
"................................"
};
