/* XPM */
static char *_2a7cf25d5394a72e84d0eb47e0aff8bZ7vMAvF3ffROYg5a[] = {
/* columns rows colors chars-per-pixel */
"32 32 13 1 ",
"  c #4F2736",
". c #3B1D2D",
"X c #2D0D1D",
"o c #A25B45",
"O c #B1664B",
"+ c #D58C56",
"@ c #E3A569",
"# c #8B4A3E",
"$ c #EEB47A",
"% c #865466",
"& c #653444",
"* c #774353",
"= c white",
/* pixels */
" . . . . . . . . . . . . . . . .",
"XoO++@+@@@@@+@+@@@@@+@+@@@@++OoX",
".#O@$$$$$$$$$@@@$$$$@@$$$$$$@O#X",
".%%OOOOOOOOOOOOooo#O#o#oooOOO#&X",
" %%oOOOoooOOOoooOoo###ooOOOOO&&X",
".%*Oo. &   & & & & & & &&& OO& X",
" %%Oo ++@$@++&$@@+*++@@@++ oO  X",
".%*Oo&+.&&&*O*OOoo&+.& & O Oo&&X",
" **oo&+&****O*OoOo*+&&*&*o&OO&&X",
".%*Oo&+&$++*O*OOoo&+ $++&O Oo&&X",
".**oO&+&+#O&O&OoOo*+&+#O*O&oO&&X",
".**OO&+&OOo*O*OOoo&+ Ooo&O OO& X",
".*%Oo&&&& & & OOOo&&& &&& &oO&&X",
".**OO&$$++&+@$$$@$@@+*$@++ oO& X",
".*%oo&$&*O*+@@@+@+@++&$ *O&oo&&X",
"X**Oo&+%#O*+o  Oo.&O+*+*#O&OO* X",
".**OO&OOOo*Oo *OO *OO&OoOo&oO&&X",
".**OO&&&&&*& &&& &&& * & &&oo*&X",
".*%Oo O+$@$@$@@@@@@@@@@@@o&oO&&X",
".%*O#&#+@@+@+@@@+@+@+@+@+# Oo*&X",
" *%Oo&*Oo#*************#O&&Oo&&X",
".%*Oo *++@$$$$$$$$$$@@++O& Oo&&X",
" %%oO&*&#O+OOoOoooooOOO#&*&oO&&X",
".*%Oo %*&#OOOOOOOOOOOO#&*% Oo& X",
" **OO %**&#OOOOOOOOOO#&**% Oo&&X",
".*%Oo %%%*&&&&&&&&&&&&*%%% O#& X",
".**oO......................Oo &X",
".%*Ooo#ooOOOoOoOOOOOooo#oOOOo& X",
" **oOoooooooooooooooOOooooOoo&&X",
".*&&&& & & &&& &   & & &&&&&  &X",
".&& & & & &    .    & & &      X",
"X.X.X.XXX.X.X.X.XXXXXXX.X.X...XX"
};
