/* XPM */
static char *_76ca9835a1546a6bcc26157f7bf04a87pYQDq9gsTebsqwU[] = {
/* columns rows colors chars-per-pixel */
"50 50 239 2 ",
"   c None",
".  c #010000",
"X  c #0C0200",
"o  c #0F0802",
"O  c #140C03",
"+  c #190802",
"@  c #191204",
"#  c #1C140B",
"$  c #1A1803",
"%  c #1E1712",
"&  c #260700",
"*  c #330F01",
"=  c #221A0D",
"-  c #271705",
";  c #331901",
":  c #241C13",
">  c #2B1D13",
",  c #261F18",
"<  c #301E14",
"1  c #3C2307",
"2  c #2B2215",
"3  c #2B241B",
"4  c #2B251A",
"5  c #3A2515",
"6  c #33261B",
"7  c #332A1D",
"8  c #3C2C1C",
"9  c #362416",
"0  c #362910",
"q  c #352D22",
"w  c #392E23",
"e  c #363024",
"r  c #3B3224",
"t  c #3D342B",
"y  c #3F3829",
"u  c #2D2521",
"i  c #4E2704",
"p  c #442D18",
"a  c #45321F",
"s  c #56351A",
"d  c #602718",
"f  c #6A390C",
"g  c #423324",
"h  c #433A2C",
"j  c #4C3C2B",
"k  c #483627",
"l  c #5C3C24",
"z  c #573A26",
"x  c #453D30",
"c  c #4D3127",
"v  c #682E2B",
"b  c #633B24",
"n  c #623E2C",
"m  c #6A3C26",
"M  c #71392B",
"N  c #693E34",
"B  c #59412F",
"V  c #4A4133",
"C  c #4E463B",
"Z  c #524333",
"A  c #554B3B",
"S  c #5B4A39",
"D  c #644124",
"F  c #64422B",
"G  c #6A452B",
"H  c #6C4427",
"J  c #774929",
"K  c #684835",
"L  c #724C35",
"P  c #794B38",
"I  c #64513B",
"U  c #75513C",
"Y  c #7B553C",
"T  c #7D5A3D",
"R  c #785536",
"E  c #7C502D",
"W  c #574E45",
"Q  c #5D554B",
"!  c #5A5142",
"~  c #664E43",
"^  c #7A4A40",
"/  c #685849",
"(  c #7B5B42",
")  c #785946",
"_  c #685D54",
"`  c #785C50",
"'  c #7F624E",
"]  c #796459",
"[  c #7D7461",
"{  c #835A3D",
"}  c #845937",
"|  c #8C4B2C",
" . c #87623E",
".. c #834E47",
"X. c #835D42",
"o. c #8B5D44",
"O. c #865B49",
"+. c #935E47",
"@. c #856243",
"#. c #8A6445",
"$. c #85644C",
"%. c #8C654B",
"&. c #8D694C",
"*. c #8A6C4B",
"=. c #926444",
"-. c #93644C",
";. c #946B4C",
":. c #996C4D",
">. c #946946",
",. c #9A724C",
"<. c #97714C",
"1. c #826453",
"2. c #8D6453",
"3. c #846B5A",
"4. c #896B54",
"5. c #936C52",
"6. c #9B6D52",
"7. c #966A56",
"8. c #957253",
"9. c #9C7354",
"0. c #95725C",
"q. c #9C745B",
"w. c #9D7A5C",
"e. c #9A7859",
"r. c #8F7055",
"t. c #A36B4D",
"y. c #A26E56",
"u. c #A37454",
"i. c #A47B56",
"p. c #A4755B",
"a. c #A47B5B",
"s. c #AB7C5B",
"d. c #A97755",
"f. c #B27D5D",
"g. c #A2714D",
"h. c #9D7C64",
"j. c #997864",
"k. c #946F63",
"l. c #A47D63",
"z. c #AA7D64",
"x. c #A57A67",
"c. c #B27D69",
"v. c #BA7D76",
"b. c #A5815E",
"n. c #AC815D",
"m. c #B1845D",
"M. c #9B836A",
"N. c #A58263",
"B. c #AB8363",
"V. c #A4826C",
"C. c #AC846A",
"Z. c #AE8A6B",
"A. c #AD8967",
"S. c #B38563",
"D. c #B48A65",
"F. c #B98966",
"G. c #B3876B",
"H. c #B38C6C",
"J. c #BB8D6C",
"K. c #B88667",
"L. c #BC916C",
"P. c #B6916A",
"I. c #AB8873",
"U. c #B38C71",
"Y. c #B98B72",
"T. c #B98476",
"R. c #BD9473",
"E. c #B5947A",
"W. c #B9957A",
"Q. c #AF977F",
"!. c #C28E6C",
"~. c #C3926E",
"^. c #C3996C",
"/. c #C38A79",
"(. c #C39472",
"). c #C49A75",
"_. c #CB9C75",
"`. c #C69B7A",
"'. c #CA9D7A",
"]. c #C79376",
"[. c #D19B7D",
"{. c #CCA27D",
"}. c #D4A27D",
"|. c #B99A84",
" X c #B18C80",
".X c #B8A894",
"XX c #CA9C81",
"oX c #C79D86",
"OX c #CE8F8B",
"+X c #CDA382",
"@X c #C5A488",
"#X c #D2A683",
"$X c #D4AA85",
"%X c #D4AB8A",
"&X c #DBAD8A",
"*X c #D9A787",
"=X c #DCB28D",
"-X c #D9B386",
";X c #CBA894",
":X c #D4A991",
">X c #DDB391",
",X c #DAB79B",
"<X c #E3B18D",
"1X c #E1AF97",
"2X c #E4B593",
"3X c #E5BB95",
"4X c #EABC95",
"5X c #E5BC9A",
"6X c #EBBC9B",
"7X c #E7B696",
"8X c #E4AF8C",
"9X c #D1B6A3",
"0X c #E6BBA1",
"qX c #ECC19C",
"wX c #E7C19A",
"eX c #F1C39C",
"rX c #EEC3A2",
"tX c #EEC9A9",
"yX c #F1C5A2",
"uX c #F3CBA5",
"iX c #F4CEAA",
"pX c #F9CDAB",
"aX c #F6D2AC",
"sX c #F9D3AC",
"dX c #F6D0A7",
"fX c #E8C9B2",
"gX c #F5CDB2",
"hX c #F6D4B1",
"jX c #FAD4B3",
"kX c #FADAB5",
"lX c #FBDAB5",
"zX c #FBD5B9",
"xX c #FCDBBA",
"cX c #F7D9BA",
"vX c #EDD1BC",
"bX c #FFE1BF",
"nX c #FFDCC1",
"mX c #FEE6C9",
"MX c #FFF4D6",
/* pixels */
"                            ,.:.=.}                                                                 ",
"                      X.:.d.g.:.u.d.d.s.u.=.{ m H L +.d.y.y.z.;.                                    ",
"                    :.d.s.f.f.!.~.F.!._.F.:.} J m =.c.c.f.S.K.s.:.o.R                               ",
"                  :.R.).J.~.}.&X8X2X&X#X}.F.f.m.F.!.].~.!.]._.!.a.:.;.Y G                           ",
"                @.F._.#X#X2XqXwXuX6X6XrX2X_.&X<X8X8X8X4X*X_._.[.!.d.9.6.@.E T                       ",
"                H.}.<XqXuXdXeXwXpXyXuXuXtX4XwX4XeX4X4XeX4X8X}._.~.J.S.n.i.8.&.*.)                   ",
"              n.&X3X4XdXdXeXqXuXpXaXjXkXkXlXlXsXdXyXdXpXuXeX4X8X}.^.F.K.S.s.e.b.r.                  ",
"            ,.^.-X3X4XeXdXuXuXdXiXdXkXkXkXcXzXjXaXiXsXsXsXsXeXeX6X&X'.~.^.(.D.n.N.                  ",
"            <.L.-XwX3XuXdXuXuXtXiXaXkXxXxXxXkXhXaXsXaXaXsXsXuXqX4XrX>X+X_.{.).P.H.0.                ",
"              D.<X3XwXeXaXaXdXaXhXkXkXbXxXxXkXlXlXlXlXlXlXaXiXuX6XrXrX2X&X{.{.L.S.0.                ",
"              D.2X>X3XqXdXdXdXtXhXhXhXhXkXxXcXjXsXaXlXjXhXrXqXqXrXyXuXsXpXuX<X{.R.h.                ",
"                =XwXyXjXbXbXmXmXkXhXtXtXiXtXuXuXqXtXuXyXrX0X0X,X:X@X@X|.|.@X|.W.U.j.                ",
"                @X@X`.Q.Q..X9X.Xj.k.M.V.E.@X=X6X,X7X5X%X:X|.j._ g - . . . . $ 2 y g                 ",
"              S I a - - 8 r & . $ $ . o * 1 I I.V.` ` K S 7 . X 2 4 3 7 e h A Q A V                 ",
"              Z r a A S Z A C y y e 6 2 = = 0 i c j a a < q q q 4 % # # 2 h A Q Q C e               ",
"              A h k g y 8 r y e 7 2 2 - @ # 8 j * & p c w q 3 3 2 % # @ q V V e 7 2 y V             ",
"              V x j x t t t t t t q 2 = = @ g & h.;X) < g q q q 4 2 : : 7 7 4 7 y y y y             ",
"              k j x q t t t e t e q 2 2 = # - ~ mXMX,X5 g q t w 4 4 : % 4 e y V V V y e             ",
"              h h A Q t u e u u 4 2 % % # 3 .  XmXcXtX` X : : : : # @ = 4 e y x V y y q             ",
"                Z ~ [ W % , % % # @ o O # % * 1XnXvX0Xk.. : o O o O O # 4 q e V V y r r             ",
"                Z I A x : : % % % # o # # . ~ 0XzXjX*X2.& > # : : : : # 4 t e 8 e 0 V V $           ",
"  fXvX        / k j g x : O # % % 4 2 2 4 . 2.7XzXpXOX7.5 2 : 4 3 : : # 4 e 8 = = . I ' 7 g c 1.|.|.",
";XxXmXMX9X    ] j w q w u , , , % 4 % O q . I.6XgXjX*Xc.` 5 2 : 3 : % # 2 e 6 7 7 . *.M.- c $.l.1.V.",
"z.g.S.,X:X    k.K + - + + O X . . . 2 8 p s XX6XzXzX7XW.V.K g 6 > : O # : > - + - U P.M.; z h.x.m 0.",
"x.M | +.z.z ) ].A.S ~ _ Q Q Q _ ] / K n b y.7X6XzXjX6XG.c.4.S j k g 6 < < < 8 Z 4.Z.P.M.; B &.l.Y 3.",
"]. .t.t.+.l j.>X=XZ.' 3.3.] 3.1.` ) Y X.P OX8X0XzXjX6XK.k.k.^ ) ) ) ) ) 2.5.8.b.A.Z.U.e.5 z h.C.o.1.",
":Xy.7X6Xx.i r.%X&X+X8.6.8.;.#.{ o.#.%.-.{ *X6XgXnXzX0XXXc.x.7.$.2.2.&.9.a.b.b.b.b.A.H.*.; s 7.Y.5.3.",
"XXc.6X7Xp.l 1.#X%X#Xi.i.a.9.9.9.:.u.9.-.6.6X6XzXzXjX0XOXoXz.C.2.$.;.9.9.a.b.b.A.b.N.A.( ; z Y l.0.3.",
"oX*X7X7Xz.G Y {.#X%XB.a.a.p.p.u.:.>.6.+.G.0X1X1X1X&XXXY.W.z.Y.G.8.p.9.a.b.N.N.A.b.A.A.I p s D 9.x.1.",
"  pX4X*Xf.{ m (.'.#XS.p.a.6.6.p.G.].].K.].].-.y.c.z.y...7.y.XX@XH.9.a.b.B.A.N.A.A.Z.b.D B l D <.I.  ",
"  tXdXrX}.p.f D.'.+XG.6.u.s.`.2X5X2X#X<X2X:.d M -.x.-.P +.6.+X>X+XU.s.B.B.G.A.N.A.U.8.s K R O.x.x.  ",
"  fXjXcX=XF.f B.`.+X).i.).2X5X6X5X$X>XrXpXY.v ..+.y.-.) 2.7.`.5X>X$XP.a.B.Z.Z.I.P.A.T i L h.C.G.h.  ",
"    pX3X&X!.f 9.)._.{.{.=X=X=X3X=X-XwXiXaX$Xo.O.O.2.P l U 2.).5X5X=X+XG.B.Z.Z.Z.U.N.D F w.N.w.x.    ",
"    gX[.~.F.} =.H.`.$X$X$X&X=X=X-X}.5XwXwX_.d.-.G P K n N X.z.'.$X%X'.A.N.N.C.C.Z.&.i Y l.l.W.Q.    ",
"      mX2X~.,.E s.'.#X$X{.{.=X=X{.{.-X-X-Xm.g.a.P l n n K K 6.D.J.R.Y.w.9.C.U.N.l.T s 2.h.W.|.      ",
"      0XxX-X:.H i.Y.{.$X}.{.{.L.F.^.{.^.^.D.,.6.2.Y U n n L 9.p.9.e.:.>.9.Z.Z.A.w.G R l.E.E.        ",
"        ,XeXi.E >.A.L.$X$X).m.m.n.b.n.m.J.d.{ P T.U.O.^ U ) -.&.%.;.#.T ;.b.N.e.$.D z $.            ",
"          H.8.H @.n.n.L.{.n. .>.:.#.T :.y.} d v P P N v z n K F U X.#.@.#.8.b.e.Y l                 ",
"            s G T b.i.n.P.A.<.#.R b b H P ....v v ^ N c N ^ O.) L @.#.$.#.#.<.%.R                   ",
"              D E  .>.,.b.,.<. .{ { o.z./././.v.v.OXOXO.7.j.x.0.r.*.@.X.>.@.@.@.                    ",
"                J T  .>.b.<. . .;.9.H.$X+XU.c.v.v.v.c.x.l.N.N.N.N.&.T T @.&.#.                      ",
"                  R  .>.>. .T R X.p.oX+X).Y.x.6.p.z.x.l.l.M.N.N.N.8.@.T T &.$.                      ",
"                    T *.#. .( ( $.B.R.H.B.a.6.-.o.%.5.0.w.e.a.N.w.*.( @.#.                          ",
"                       .#.*.*.*.@.8.N.p.-.o.R E X.X.{ $.8.e.w.w.e.*. .$.@.                          ",
"                        R 8.&.Y R 8.N.B.B.B.a.6.-.o.{ &.8.e.w.e.r. .$.T                             ",
"                          $.%.Y T b.R.R._.3XqX#XY.z.a.p.e.w.w.e.8.$.                                ",
"                              R Y e.).{.'.{.=X{.S.G.Y.H.b.8.<.' T                                   ",
"                                  $.D.(.J.n.n.m.9.a.i.a.B.e.{                                       ",
"                                    ;.m.m.m.:.>.:.9.@.T 9.&.                                        ",
"                                          :.=.{ Y X.{ L                                             "
};
