<svg xmlns="http://www.w3.org/2000/svg" width="187.10000000000002" height="35" viewBox="0 0 187.10000000000002 35"><rect class="svg__rect" x="0" y="0" width="97.07" height="35" fill="#5CB85C"/><rect class="svg__rect" x="95.07" y="0" width="92.03000000000002" height="35" fill="#3C983C"/><path class="svg__text" d="M13.78 19.42L13.78 19.42L15.27 19.42Q15.27 20.15 15.75 20.55Q16.23 20.95 17.12 20.95L17.12 20.95Q17.90 20.95 18.29 20.63Q18.68 20.32 18.68 19.80L18.68 19.80Q18.68 19.24 18.28 18.94Q17.89 18.63 16.85 18.32Q15.82 18.01 15.21 17.63L15.21 17.63Q14.05 16.90 14.05 15.72L14.05 15.72Q14.05 14.69 14.89 14.02Q15.73 13.35 17.07 13.35L17.07 13.35Q17.96 13.35 18.66 13.68Q19.36 14.01 19.75 14.61Q20.15 15.22 20.15 15.96L20.15 15.96L18.68 15.96Q18.68 15.29 18.26 14.91Q17.84 14.54 17.06 14.54L17.06 14.54Q16.33 14.54 15.93 14.85Q15.53 15.16 15.53 15.71L15.53 15.71Q15.53 16.18 15.96 16.50Q16.40 16.81 17.39 17.10Q18.39 17.40 18.99 17.78Q19.60 18.16 19.88 18.65Q20.16 19.13 20.16 19.79L20.16 19.79Q20.16 20.86 19.34 21.49Q18.52 22.12 17.12 22.12L17.12 22.12Q16.20 22.12 15.42 21.77Q14.64 21.43 14.21 20.83Q13.78 20.22 13.78 19.42ZM24.31 19.16L24.31 19.16L24.31 13.47L25.79 13.47L25.79 19.18Q25.79 20.03 26.22 20.48Q26.66 20.93 27.50 20.93L27.50 20.93Q29.21 20.93 29.21 19.13L29.21 19.13L29.21 13.47L30.69 13.47L30.69 19.17Q30.69 20.53 29.82 21.32Q28.95 22.12 27.50 22.12L27.50 22.12Q26.04 22.12 25.17 21.33Q24.31 20.55 24.31 19.16ZM34.99 18.19L34.99 18.19L34.99 17.39Q34.99 16.19 35.42 15.27Q35.84 14.35 36.64 13.85Q37.44 13.35 38.49 13.35L38.49 13.35Q39.90 13.35 40.77 14.12Q41.63 14.89 41.77 16.29L41.77 16.29L40.29 16.29Q40.19 15.37 39.76 14.96Q39.32 14.55 38.49 14.55L38.49 14.55Q37.53 14.55 37.01 15.26Q36.49 15.96 36.48 17.33L36.48 17.33L36.48 18.09Q36.48 19.47 36.97 20.20Q37.47 20.92 38.42 20.92L38.42 20.92Q39.30 20.92 39.73 20.53Q40.17 20.14 40.29 19.22L40.29 19.22L41.77 19.22Q41.64 20.59 40.76 21.35Q39.88 22.12 38.42 22.12L38.42 22.12Q37.40 22.12 36.63 21.63Q35.85 21.15 35.43 20.26Q35.01 19.37 34.99 18.19ZM45.81 18.19L45.81 18.19L45.81 17.39Q45.81 16.19 46.24 15.27Q46.67 14.35 47.47 13.85Q48.27 13.35 49.31 13.35L49.31 13.35Q50.73 13.35 51.59 14.12Q52.45 14.89 52.59 16.29L52.59 16.29L51.11 16.29Q51.01 15.37 50.58 14.96Q50.15 14.55 49.31 14.55L49.31 14.55Q48.35 14.55 47.83 15.26Q47.31 15.96 47.30 17.33L47.30 17.33L47.30 18.09Q47.30 19.47 47.79 20.20Q48.29 20.92 49.24 20.92L49.24 20.92Q50.12 20.92 50.56 20.53Q51.00 20.14 51.11 19.22L51.11 19.22L52.59 19.22Q52.46 20.59 51.58 21.35Q50.70 22.12 49.24 22.12L49.24 22.12Q48.23 22.12 47.45 21.63Q46.67 21.15 46.25 20.26Q45.83 19.37 45.81 18.19ZM62.48 22L56.90 22L56.90 13.47L62.44 13.47L62.44 14.66L58.39 14.66L58.39 17.02L61.89 17.02L61.89 18.19L58.39 18.19L58.39 20.82L62.48 20.82L62.48 22ZM66.24 19.42L66.24 19.42L67.72 19.42Q67.72 20.15 68.21 20.55Q68.69 20.95 69.58 20.95L69.58 20.95Q70.36 20.95 70.75 20.63Q71.14 20.32 71.14 19.80L71.14 19.80Q71.14 19.24 70.74 18.94Q70.34 18.63 69.31 18.32Q68.28 18.01 67.67 17.63L67.67 17.63Q66.51 16.90 66.51 15.72L66.51 15.72Q66.51 14.69 67.35 14.02Q68.19 13.35 69.53 13.35L69.53 13.35Q70.42 13.35 71.12 13.68Q71.81 14.01 72.21 14.61Q72.61 15.22 72.61 15.96L72.61 15.96L71.14 15.96Q71.14 15.29 70.72 14.91Q70.30 14.54 69.52 14.54L69.52 14.54Q68.79 14.54 68.39 14.85Q67.99 15.16 67.99 15.71L67.99 15.71Q67.99 16.18 68.42 16.50Q68.86 16.81 69.85 17.10Q70.85 17.40 71.45 17.78Q72.06 18.16 72.34 18.65Q72.62 19.13 72.62 19.79L72.62 19.79Q72.62 20.86 71.80 21.49Q70.98 22.12 69.58 22.12L69.58 22.12Q68.66 22.12 67.88 21.77Q67.10 21.43 66.67 20.83Q66.24 20.22 66.24 19.42ZM76.47 19.42L76.47 19.42L77.96 19.42Q77.96 20.15 78.44 20.55Q78.92 20.95 79.81 20.95L79.81 20.95Q80.59 20.95 80.98 20.63Q81.37 20.32 81.37 19.80L81.37 19.80Q81.37 19.24 80.97 18.94Q80.57 18.63 79.54 18.32Q78.51 18.01 77.90 17.63L77.90 17.63Q76.74 16.90 76.74 15.72L76.74 15.72Q76.74 14.69 77.58 14.02Q78.42 13.35 79.76 13.35L79.76 13.35Q80.65 13.35 81.35 13.68Q82.05 14.01 82.44 14.61Q82.84 15.22 82.84 15.96L82.84 15.96L81.37 15.96Q81.37 15.29 80.95 14.91Q80.53 14.54 79.75 14.54L79.75 14.54Q79.02 14.54 78.62 14.85Q78.22 15.16 78.22 15.71L78.22 15.71Q78.22 16.18 78.65 16.50Q79.09 16.81 80.08 17.10Q81.08 17.40 81.68 17.78Q82.29 18.16 82.57 18.65Q82.85 19.13 82.85 19.79L82.85 19.79Q82.85 20.86 82.03 21.49Q81.21 22.12 79.81 22.12L79.81 22.12Q78.89 22.12 78.11 21.77Q77.33 21.43 76.90 20.83Q76.47 20.22 76.47 19.42Z" fill="#FFFFFF"/><path class="svg__text" d="M110.05 15.44L108.49 15.44L108.49 13.60L112.43 13.60L112.43 22L110.05 22L110.05 15.44ZM118.46 16.17L116.69 15.19Q117.19 14.37 118.07 13.90Q118.96 13.43 120.17 13.43L120.17 13.43Q121.13 13.43 121.87 13.74Q122.61 14.05 123.02 14.64Q123.44 15.22 123.44 15.99L123.44 15.99Q123.44 16.67 123.14 17.28Q122.85 17.89 122.01 18.65L122.01 18.65L120.43 20.11L123.67 20.11L123.67 22L117.12 22L117.12 20.51L120.27 17.57Q120.72 17.14 120.88 16.83Q121.04 16.53 121.04 16.22L121.04 16.22Q121.04 15.81 120.76 15.58Q120.48 15.35 119.96 15.35L119.96 15.35Q119.49 15.35 119.10 15.56Q118.71 15.77 118.46 16.17L118.46 16.17ZM127.53 21.34L127.53 21.34L128.38 19.55Q128.89 19.88 129.49 20.07Q130.10 20.25 130.71 20.25L130.71 20.25Q131.32 20.25 131.68 20.01Q132.05 19.78 132.05 19.36L132.05 19.36Q132.05 18.94 131.69 18.72Q131.34 18.51 130.42 18.51L130.42 18.51L128.14 18.51L128.56 13.60L133.91 13.60L133.91 15.44L130.53 15.44L130.42 16.66L130.98 16.66Q132.75 16.66 133.59 17.38Q134.44 18.10 134.44 19.30L134.44 19.30Q134.44 20.08 134.04 20.73Q133.64 21.39 132.82 21.78Q131.99 22.17 130.78 22.17L130.78 22.17Q129.89 22.17 129.02 21.95Q128.15 21.74 127.53 21.34ZM139.79 23.20L137.76 23.20L141.72 11.90L143.75 11.90L139.79 23.20ZM148.30 15.44L146.73 15.44L146.73 13.60L150.67 13.60L150.67 22L148.30 22L148.30 15.44ZM155.42 17.80L155.42 17.80Q155.42 16.45 155.89 15.46Q156.36 14.46 157.20 13.95Q158.04 13.43 159.12 13.43L159.12 13.43Q160.19 13.43 161.03 13.95Q161.87 14.46 162.34 15.46Q162.82 16.45 162.82 17.80L162.82 17.80Q162.82 19.15 162.34 20.15Q161.87 21.14 161.03 21.65Q160.19 22.17 159.12 22.17L159.12 22.17Q158.04 22.17 157.20 21.65Q156.36 21.14 155.89 20.15Q155.42 19.16 155.42 17.80ZM157.80 17.80L157.80 17.80Q157.80 19.06 158.16 19.64Q158.51 20.22 159.12 20.22L159.12 20.22Q159.72 20.22 160.08 19.64Q160.43 19.06 160.43 17.80L160.43 17.80Q160.43 16.54 160.08 15.96Q159.72 15.38 159.12 15.38L159.12 15.38Q158.51 15.38 158.16 15.96Q157.80 16.54 157.80 17.80ZM167.12 17.80L167.12 17.80Q167.12 16.45 167.59 15.46Q168.06 14.46 168.90 13.95Q169.74 13.43 170.82 13.43L170.82 13.43Q171.89 13.43 172.73 13.95Q173.57 14.46 174.04 15.46Q174.52 16.45 174.52 17.80L174.52 17.80Q174.52 19.15 174.04 20.15Q173.57 21.14 172.73 21.65Q171.89 22.17 170.82 22.17L170.82 22.17Q169.74 22.17 168.90 21.65Q168.06 21.14 167.59 20.15Q167.12 19.16 167.12 17.80ZM169.50 17.80L169.50 17.80Q169.50 19.06 169.86 19.64Q170.21 20.22 170.82 20.22L170.82 20.22Q171.43 20.22 171.78 19.64Q172.13 19.06 172.13 17.80L172.13 17.80Q172.13 16.54 171.78 15.96Q171.43 15.38 170.82 15.38L170.82 15.38Q170.21 15.38 169.86 15.96Q169.50 16.54 169.50 17.80Z" fill="#FFFFFF" x="108.07"/></svg>