/* XPM */
static char *result[] = {
/* columns rows colors chars-per-pixel */
"70 62 116 2 ",
"   c black",
".  c #070707",
"X  c #0B0B0B",
"o  c #170F07",
"O  c #0B1707",
"+  c #131313",
"@  c #1B1B1B",
"#  c #13230B",
"$  c #17330F",
"%  c #2B230F",
"&  c #332B13",
"*  c #3F2F17",
"=  c #232323",
"-  c #272727",
";  c #2F2F2F",
":  c #373F27",
">  c #373737",
",  c #430000",
"<  c #470000",
"1  c #4F0000",
"2  c #530707",
"3  c #5B0000",
"4  c #670000",
"5  c #670B0B",
"6  c #730000",
"7  c #7F0000",
"8  c #771717",
"9  c #7F1B1B",
"0  c #43331B",
"q  c #4B371B",
"w  c #533F1F",
"e  c #732B00",
"r  c #4F3B23",
"t  c #533F2F",
"y  c #3F472B",
"u  c #474F33",
"i  c #574333",
"p  c #5F4B37",
"a  c #53573B",
"s  c #6B4727",
"d  c #7F532F",
"f  c #67533F",
"g  c gray31",
"h  c #6F5743",
"j  c #775F4B",
"k  c #5B6347",
"l  c #676B4F",
"z  c #6F7357",
"x  c #7B7F63",
"c  c #8B0000",
"v  c #9B0000",
"b  c #831F1F",
"n  c #A70000",
"m  c #B30000",
"M  c #BF0000",
"N  c #8B2323",
"B  c #8F2B2B",
"V  c #972F2F",
"C  c #9B3333",
"Z  c #CB0000",
"A  c #D70000",
"S  c #E30000",
"D  c #EF0000",
"F  c red",
"G  c #FF1F1F",
"H  c #FF3F3F",
"J  c #874307",
"K  c #AF4300",
"L  c #B74700",
"P  c #8F5F37",
"I  c #A36B3F",
"U  c #C34F00",
"Y  c #CB5707",
"T  c #D75F0B",
"R  c #DF670F",
"E  c #EB6F0F",
"W  c #F37317",
"Q  c #FF7F1B",
"!  c #B34F4F",
"~  c #836B57",
"^  c #8F7753",
"/  c #8B735B",
"(  c #937B63",
")  c #9B7F6B",
"_  c #FF5F5F",
"`  c #FF7B7B",
"'  c #FF8F3B",
"]  c #9F876F",
"[  c #A78F77",
"{  c #AF977F",
"}  c #FFA35B",
"|  c #FFB37B",
" . c #FFFF47",
".. c #838383",
"X. c #939393",
"o. c #979797",
"O. c #BFA78F",
"+. c #A7A7A7",
"@. c gray67",
"#. c gray70",
"$. c #B7B7B7",
"%. c gray75",
"&. c #DF8787",
"*. c #FF9B9B",
"=. c #FFBB93",
"-. c #FFB7B7",
";. c #FFBBBB",
":. c #FFC79B",
">. c #FFFF8F",
",. c #FFCFB3",
"<. c #FFD7BB",
"1. c #FFFFB3",
"2. c #FFDBC7",
"3. c #FFEBDB",
"4. c white",
"5. c None",
/* pixels */
"5.5.5.5.5.5.5.5.5.5.5.5.5.5.5.5.5.5.5.5.5.5.5.5.5.5.5.5.5.5.5.5.5.5.5.5.5.5.5.5.5.5.5.5.5.5.5.5.5.5.5.5.5.5.5.5.5.5.5.5.5.5.5.5.5.5.5.5.5.5.",
"5.5.5.5.5.5.5.5.5.5.5.5.5.5.5.5.5.5.5.5.5.5.5.5.5.5.5.5.5.5.5.5.5.5.5.5.5.5.5.5.5.5.5.5.5.5.5.5.5.5.5.5.5.5.5.5.5.5.5.5.5.5.5.5.5.5.5.5.5.5.",
"5.5.5.5.5.5.5.5.5.5.5.5.5.5.5.5.5.5.5.5.5.5.5.5.5.5.5.5.5.5.5.5.5.5.5.5.5.5.5.5.5.5.5.5.5.5.5.5.5.5.5.5.5.5.5.5.5.5.5.5.5.5.5.5.5.5.5.5.5.5.",
"5.5.5.5.5.5.5.5.5.5.5.5.5.5.5.5.5.5.5.5.5.5.5.5.5.5.5.5.5.5.5.5.5.5.5.5.5.5.5.5.5.5.5.5.5.5.5.5.5.5.5.5.5.5.5.5.5.5.5.5.5.5.5.5.5.5.5.5.5.5.",
"5.5.5.5.5.5.5.5.5.5.5.5.5.5.5.5.5.5.5.5.5.5.5.5.5.5.5.5.5.5.5.5.5.5.5.5.5.5.5.5.5.5.5.5.5.5.5.5.5.5.5.5.5.5.5.5.5.5.5.5.5.5.5.5.5.5.5.5.5.5.",
"5.5.5.5.5.5.5.5.5.5.5.5.5.5.5.5.5.5.5.5.5.5.5.5.5.5.5.5.5.5.5.5.5.5.5.5.5.5.5.5.5.5.5.5.5.5.5.5.5.5.5.5.5.5.5.5.5.5.5.5.5.5.5.5.5.5.5.5.5.5.",
"5.5.5.5.5.5.5.5.5.5.5.5.5.5.5.5.5.5.5.5.5.5.5.5.5.5.5.5.5.5.5.5.5.5.5.5.5.5.5.5.5.5.5.5.5.5.5.5.5.5.5.5.5.5.5.5.5.5.5.5.5.5.5.5.5.5.5.5.5.5.",
"5.5.5.5.5.5.5.5.5.5.5.5.5.5.5.5.5.5.5.5.5.5.5.5.5.5.5.5.5.5.5.5.5.5.5.5.5.5.5.5.5.5.5.5.5.5.5.5.5.5.5.5.5.5.5.5.5.5.5.5.5.5.5.5.5.5.5.5.5.5.",
"5.5.5.5.5.5.5.5.5.5.5.5.5.5.5.5.5.5.5.5.5.5.5.5.5.5.5.5.5.5.5.5.5.5.5.5.5.5.5.5.5.5.5.5.5.5.5.5.5.5.5.5.5.5.5.5.5.5.5.5.5.5.5.5.5.5.5.5.5.5.",
"5.5.5.5.5.5.5.5.5.5.5.5.5.5.5.5.5.5.5.5.5.5.5.5.5.5.5.5.5.5.5.5.5.5.5.5.5.5.5.5.5.5.5.5.5.5.5.5.5.5.5.5.5.5.5.5.5.5.5.5.5.5.5.5.5.5.5.5.5.5.",
"5.5.5.5.5.5.5.5.5.5.5.5.5.5.5.5.5.5.5.5.5.5.5.5.5.5.5.5.5.5.5.5.5.5.5.5.5.5.5.5.5.5.5.5.5.5.5.5.5.5.5.5.5.5.5.5.5.5.5.5.5.5.5.5.5.5.5.5.5.5.",
"5.5.5.5.5.5.5.5.5.5.5.5.5.5.5.5.5.5.5.5.5.5.5.5.5.5.5.5.5.5.5.5.5.5.5.5.5.5.5.5.5.5.5.5.5.5.5.5.5.5.5.5.5.5.5.5.5.5.5.5.5.5.5.5.5.5.5.5.5.5.",
"5.5.5.5.5.5.5.5.5.5.5.5.5.5.5.5.5.5.5.5.5.5.5.5.5.5.5.5.5.5.5.5.5.5.< 4 7 7 7 4 , 5.5.5.5.5.5.5.5.5.5.5.5.5.5.5.5.5.5.5.5.5.5.5.5.5.5.5.5.5.",
"5.5.5.5.5.5.5.5.5.5.5.5.5.5.5.5.5.5.5.5.5.5.5.5.5.5.5.5.5.! 5., 6 n m m m ] ) ) m m i ; t 5.5.5.5.5.5.5.5.5.5.5.5.5.5.5.5.5.5.5.5.5.5.5.5.5.",
"5.5.5.5.5.5.5.5.5.5.5.5.5.5.5.5.5.5.5.$.#.o.    , ,     1 4 v v M n n Z n ] ] ] M m   + @ 3 5.5.5.5.5.5.5.5.5.5.5.5.5.5.5.5.5.5.5.5.5.5.5.5.",
"5.5.5.5.5.5.5.5.5.5.5.5.5.5.5.5.5.5.5.$.o.g O ,     1 6 E S D A m M } R M ] [ [ ] ] @ @ @ 7 c 3 5.5.5.5.5.5.5.5.5.5.5.5.5.5.5.5.5.5.5.5.5.5.",
"5.5.5.5.5.5.5.5.5.5.5.5.5.5.5.5.5.5.$.x x ) ~ 4 3 c m E D D R m m n Z n c ] { { [ ] R M c 4 v 1 , , 5., f i 5.5.5.5.5.5.5.5.5.5.5.5.5.5.5.5.",
"5.5.5.5.5.5.5.5.5.5.5.5.5.5.5.5.5.5.%.x x [ / m 6 m n A S Z v n m v n m M ] O.O.{ [ m f q 4 n 7 v 7 B d @   + 5.5.5.5.5.5.5.5.5.5.5.5.5.5.5.",
"5.5.5.5.5.5.5.5.5.5.5.5.5.5.5.5.5.+.o.) [ / 9 3 6 3 c A M U E E U m S R T ` ` *.O.{ v ) p R R m m V q * @ + @ + 5.5.5.5.5.5.5.5.5.5.5.5.5.5.",
"5.5.5.5.5.5.5.5.5.5.5.5.5.5.5.5...z ] ) [ w b 4 4 < 7 S M T ' ' T m T E ' ' R ` O.O.A M n v } R s r & % @ + + 5.5.5.5.5.5.5.5.5.5.5.5.5.5.5.",
"5.5.5.5.5.5.5.5.5.5.5.5.5.5.5.X.X.z / [ / 3 3 4 c 1 6 n n U R U M M T R } ' R U *.*.D E M 7 n 9 r : = +   $ + , 5., 5.5.5.5.5.5.5.5.5.5.5.5.",
"5.5.5.5.5.5.5.5.5.5.5.5.5.5.5.+.x l [ / 1 7 7 3 c 4 4 M n M M A A A Z R T R f q S D Z S S M c P w - = : : = # 6 , 5.5.5.5.5.5.5.5.5.5.5.5.5.",
"5.5.5.5.5.5.5.5.5.5.5.5.5.5.] x ) [ / 4 6 v 6 n v 1 7 n 7 n f A Z A R E D D ) p D S S D D S M M P w : u : +   c , , 5.5.5.5.5.5.5.5.5.5.5.5.",
"5.5.5.5.5.5.5.5.5.5.5.5.5.5.5.z / c c 7 v + 7 U 7 v n v 7 Z M A v F H R _ _ R _ _ _ G _ f D G Z n P w = + + 2 v 3 , 5.5.5.5.5.5.5.5.5.5.5.5.",
"5.5.5.5.5.5.5.5.5.5.5.5.5.5.5.O , c 6 c v + - M v Z v c m A f F F R R R Q Q Q Q Q R R E _ H H G A R P w + E n m n 5., 5.5.5.5.5.5.5.5.5.5.5.",
"5.5.5.5.5.5.5.5.5.5.5.5.5.5.5., , 7 6 U Y Z A Z A S M m A R E W Q Q Q ' R R ' Q &.' Q Q _ _ H H G R R n Z S E n A 6 5.5.5.5.5.5.5.5.5.5.5.5.",
"5.5.5.5.5.5.5.5.5.5.5.5.5.5.5.5.c v c U Y Z D T F S m G R R Q Q ' } } _ } } } | } ` ` ' Q W E E E F M R 7 c E E , 3 5.5.5.5.5.5.5.5.5.5.5.5.",
"5.5.5.5.5.5.5.5.5.5.5.5.5.5.5.5.v v n E Z Z T ' T Z m R G W Q } } ` 3.;.2.| | <.| | | } ' Q W E R F f 1 , 1 M M , 3 5.5.5.5.5.5.5.5.5.5.5.5.",
"5.5.5.5.5.5.5.5.5.5.5.5.5.5.5.5.7 m v Y m M W | f q D E Q R Q ' :.;.| | | <.| | :.<.:.+.' Q ' W E Y v K 3 , n m 7 n , 5.5.5.5.5.5.5.5.5.5.5.",
"5.5.5.5.5.5.5.5.5.5.5.5.5.5.5., 7 v v m m v W | ) p D E R Q Q :.} | | <.<.>.4.| | 3.<.| | } f ' E R L m L 6 6 c 3 m 3 , 5.5.5.5.5.5.5.5.5.5.",
"5.5.5.5.5.5.5.5.5.5.5.5.5.5.5., 4 c c v M c E ' T n m W Q } :.} } <.| 3.>.>.3. .3.<.:.<.<.| } ' W E Y n K L 3 7 , M 3 5., 5.5.5.5.5.5.5.5.5.",
"5.5.5.5.5.5.5.5.5.5.5.5.5.5.5.5.5.3 7 6 v n R T S S E W } | } } <.<.<.<.:.1. . . .<.3.3.3.:.} ' W E Y L K L c c , n 3 , 4 5.5.5.5.5.5.5.5.5.",
"5.5.5.5.5.5.5.5.5.5.5.5.5.5.5.5.5., v 4 6 v U D S U W W } } :.<.<.f 3.<. .4.1.<.<.<.3.3.<.| } } f E Y Y c Y L 4 , 4 1 , 4 5.5.5.5.5.5.5.5.5.",
"5.5.5.5.5.5.5.5.5.5.5.5.5.5.5.5.5.3 n 4 4 7 v M U m W E ' | } 3.<.>. .:.1.1.3.>.4.:.:.:.| | } } W E Y L m Y Y 3 , 4 , 5., 5.5.5.5.5.5.5.5.5.",
"5.5.5.5.5.5.5.5.5.5.5.5.5.5.5.5.3 %.v 7 7 4 c m U A W R W | } } <. . .1.<.1.>.1. .<.<.3.3.:.} ' W E L L m W Y 4 7 6 3 1 , 5.5.5.5.5.5.5.5.5.",
"5.5.5.5.5.5.5.5.5.5.5.5.5.5.5.3 c 6 4 v c 4 f v Y T T Y R f } :.' <.<. .>.1.>.1.3. .>.<.<.<.} ' W R L f Z ' W 6 c L c 7 5.5.5.5.5.5.5.5.5.5.",
"5.5.5.5.5.5.5.5.5.5.5.5.5.5.3 3 ..z , 1 7 6 6 v D Y Y T R ' | :.} <.3.<.1.1.>. .3. .:.:.:.<.} ' W R U Z Y ' R 6 4 W L c 5.t 5.5.5.5.5.5.5.5.",
"5.5.5.5.5.5.5.5.5.5.5.5.5.5.3 3 ..z 4 4 4 n 7 7 4 f U R W ' | } } <.<.<.<.<.>. .<.<.>.<.:.| ' +.R Y f M T W Y 6 3 R L c 5.= @ 5.5.5.5.5.5.5.",
"5.5.5.5.5.5.5.5.5.) 5.5.5.5.3 , 6 v 6 6 4 1 3 c Y M Z U ' R ' } -.:.<. . .<.<. .>.>.3.<.<.} ' W Y L Z Y ' R M 3 J Y v 6 3 o @ 5.5.5.5.5.5.5.",
"5.5.5.5.5.5.5.5.5.~ 5.5.5.5., 3 M m 3 4 n v L 4 7 Y M G Y Y W ' } } | :.<.>.<.<.3.3.3.<.| ' Q R L n K ' W M v < L c c 4 3 5.5.5.5.5.5.5.5.5.",
"5.5.5.5.5.5.5.5.[ r 5.5.5., 6 v v 6 3 3 n m Y L F f M c M Y R W Q ' } | =.:.<.<.<.:.+.} f W W I + c 4 L m 6 , e t 4 1 3 3 5.5.5.5.5.5.5.5.5.",
"5.5.5.5.5.5.5.[ ( i & 5.5., c M v 6 4 c n v M Y L v 6 7 M M f q R ' ' ' } | | :.| } } ' Q W E I + + 7 m 4 , 1 c = @ 5.3 5.5.5.5.5.5.5.5.5.5.",
"5.5.5.5.5.5.5.{ [ f & + 5.3 c c v m m Z Z Z Z M Y L v f v M ) p T R W Q ' ' ' ' ' Q W E R T Y I   + - c 6 6 4 1 o @ > 3 5.5.5.5.5.5.5.5.5.5.",
"5.5.5.5.5.5.5.+.O.O.r + Z 5.3 7 m S S S S Z Z x 7 v v c 1 3 7 6 m U T E f W W W f R R T Y U L M m v 6 1 3 c n 6 , 3 , 5.3 5.5.5.5.5.5.5.5.5.",
"5.5.5.5.5.5.5...z ] j p w N m 1 S S F F F Z Z +.~ f q 7 c L Y v 3 1 M A S D A F F F Y Y A M n v 7 4 6 , , 3 v U 6 3 6 , 5.5.5.5.5.5.5.5.5.5.",
"5.5.5.5.5.5.5.5.x l a * * 8 m Z D D W W E F Y ..@.) p v n L E T L 7 7 v m F A F A M S M 7 1 6 6 4 3 n 3 3 4 7 m L , 7 , 5.5.5.5.5.5.5.5.5.5.",
"5.5.5.5.5.5.5.5.5.z a : * 5 S G W ' } } W W Y X.z ~ h c 7 v Y ' ' T 4 1 7 v n M n m v 7 4 4 c c 6 I + + c 4 7 c n , 4 , 5.5.5.5.5.5.5.5.5.5.",
"5.5.5.5.5.5.5.5.5.5.5., 0 n A W ' } =.:.' W +.x k a 6 n Z m Z E R R K 6 c 7 f 7 1 6 7 v n 3 m Y I ; @ + + 7 < c c 1 3 , 3 5.5.5.5.5.5.5.5.5.",
"5.5.5.5.5.5.5.5.5.5.5.3 m Z R ' } | ,.:.| | R Y ( ) 6 Z m n n f L K 7 7 6 7 4 4 4 7 v 7 7 m Z R P = #   + - v 1 3 6 6 , 3 5.5.5.5.5.5.5.5.5.",
"5.5.5.5.5.5.5.5.5.5.5., m D W ' } ,.| | =.' W Y Y 7 m A m c A 6 n m 6 , , , , Y 7 n n f f v Y E P +     + = M c m 7 c , 5.5.5.5.5.5.5.5.5.5.",
"5.5.5.5.5.5.5.5.5.5.5.5.m D R } | | 3.| =.} W T Y v m 7 4 Y W v 7 4 7 7 7 Y W W Y 7 v 6 v D } T P + X . + c n 7 L m c , 5.5.5.5.5.5.5.5.5.5.",
"5.5.5.5.5.5.5.5.5.5.5.3 , m T } | } :.| } ' W T U A v A 4 + 7 3 6 6 7 n m c Y Y c c + 7 E } W U P X X c 6 c n 6 U K c , 3 5.5.5.5.5.5.5.5.5.",
"5.5.5.5.5.5.5.5.5.5.5.3 , 5.Y W ' ' } } ' Q R U M m M v 6 + - 4 < 4 7 c c 2 m Z m n + - ' W R L c X 4 1 4 6 n L U m 4 5.5.5.5.5.5.5.5.5.5.5.",
"5.5.5.5.5.5.5.5.5.5.5.4 5.1 c W E ' W ' W R Y m n m 4 1 , 4 7 v c 4 , , , , , 7 v m n L U K N c 4 b K m 3 7 v U m 3 < 4 5.5.5.5.5.5.5.5.5.5.",
"5.5.5.5.5.5.5.5.5.5.5.5.6 1 3 K Z S R R T + 7 v 3 m 4 , , 3 m 4 6 3 , < 4 3 , 3 3 n N 9 1 c 6 6 c U U v 7 6 K 7 6 , 3 5.5.5.5.5.5.5.5.5.5.5.",
"5.5.5.5.5.5.5.5.5.5.5.5.5.6 , 3 c m M L L + - v v 6 3 7 7 n A n 4 , , , 4 4 1 , < 4 4 9 v m Z m U T E 7 , , 1 , , 3 5.5.5.5.5.5.5.5.5.5.5.5.",
"5.5.5.5.5.5.5.5.5.5.5.5.5.5.5., 3 c c c c c 3 < 4 6 6 c 8 S H y y j y y y : ; ; = = = 4 c v : : L U K , , , 5.5.5.5.5.5.5.5.5.5.5.5.5.5.5.5.",
"5.5.5.5.5.5.5.5.5.5.5.5.5.5.5.5., 3 4 7 4 , 3 < 4 c m m 5 Y R 3.| T a ; + + +           : : : 9 J c 4 , , 5.5.5.5.5.5.5.5.5.5.5.5.5.5.5.5.5.",
"5.5.5.5.5.5.5.5.5.5.5.5.5.5.5.5.5.3 , , , , , , , 3 3 3 Y R | <.} T z l k k a u y : $ = 4 : < < < < , 4 5.5.5.5.5.5.5.5.5.5.5.5.5.5.5.5.5.5.",
"5.5.5.5.5.5.5.5.5.5.5.5.5.5.5.5.5.5.5.( 4 3 ( 3 3 4 , K K K E E E x z l k k a u y : $     < 8 5 3 , , , 5.5.5.5.5.5.5.5.5.5.5.5.5.5.5.5.5.5.",
"5.5.5.5.5.5.5.5.5.5.5.5.5.5.5.5.5.5.5.5.5.( / , C ( z a ^ C ] [ [ ] ] ] x z z z k k k         5 3 5.5.5.5.5.5.5.5.5.5.5.5.5.5.5.5.5.5.5.5.5.",
"5.5.5.5.5.5.5.5.5.5.5.5.5.5.5.5.5.5.5.5.5.5.5.5.a a a a a a a a a a ; = = = + + + +     = 5.5.5.5.5.5.5.5.5.5.5.5.5.5.5.5.5.5.5.5.5.5.5.5.5."
};
