/* XPM */
static char *result[] = {
/* columns rows colors chars-per-pixel */
"70 62 62 1 ",
"  c black",
". c #070707",
"X c #0B0B0B",
"o c #0B1707",
"O c #131313",
"+ c #1B1B1B",
"@ c #13230B",
"# c #17330F",
"$ c #232323",
"% c #272727",
"& c #2F2F2F",
"* c #373F27",
"= c #373737",
"- c gray23",
"; c #1F4317",
": c #27531B",
"> c #3F472B",
", c #2F6323",
"< c #37732B",
"1 c #474F33",
"2 c #5F4B37",
"3 c #53573B",
"4 c #434343",
"5 c gray28",
"6 c gray34",
"7 c #5B5B5B",
"8 c #775F4B",
"9 c #5B6347",
"0 c #676B4F",
"q c #7B634F",
"w c #6F7357",
"e c gray39",
"r c gray42",
"t c #6F6F6F",
"y c #7B7F63",
"u c #777777",
"i c gray50",
"p c #8B735B",
"a c #937B63",
"s c #9B7F6B",
"d c #3F832F",
"f c #4B9F3F",
"g c #53AF47",
"h c #5BBF4F",
"j c #5FCF57",
"k c #9F8363",
"l c #9F876F",
"z c #A78F77",
"x c #AF977F",
"c c #838383",
"v c #8B8B8B",
"b c #939393",
"n c #979797",
"m c #9F9F9F",
"M c #B79F87",
"N c #BFA78F",
"B c #A7A7A7",
"V c gray67",
"C c gray70",
"Z c #B7B7B7",
"A c gray75",
"S c None",
/* pixels */
"SSSSSSSSSSSSSSSSSSSSSSSSSSSSSSSSSSSSSSSSSSSSSSSSSSSSSSSSSSSSSSSSSSSSSS",
"SSSSSSSSSSSSSSSSSSSSSSSSSSSSSSSSSSSSSSSSSSSSSSSSSSSSSSSSSSSSSSSSSSSSSS",
"SSSSSSSSSSSSSSSSSSSSSSSSSSSSSSSSSSSSSSSSSSSSSSSSSSSSSSSSSSSSSSSSSSSSSS",
"SSSSSSSSSSSSSSSSSSSSSSSSSSSSSSSSSSSSSSSSSSSSSSSSSSSSSSSSSSSSSSSSSSSSSS",
"SSSSSSSSSSSSSSSSSSSSSSSSSSSSSSSSSSSSSSSSSSSSSSSSSSSSSSSSSSSSSSSSSSSSSS",
"SSSSSSSSSSSSSSSSSSSSSSSSSSSSSSSSSSSSSSSSSSSSSSSSSSSSSSSSSSSSSSSSSSSSSS",
"SSSSSSSSSSSSSSSSSSSSSSSSSSSSSSSSSSSSSSSSSSSSSSSSSSSSSSSSSSSSSSSSSSSSSS",
"SSSSSSSSSSSSSSSSSSSSSSSSSSSSSSSSSSSSSSSSSSSSSSSSSSSSSSSSSSSSSSSSSSSSSS",
"SSSSSSSSSSSSSSSSSSSSSSSSSSSSSSSSSSSSSSSSSSSSSSSSSSSSSSSSSSSSSSSSSSSSSS",
"SSSSSSSSSSSSSSSSSSSSSSSSSSSSSSSSSSSSSSSSSSSSSSSSSSSSSSSSSSSSSSSSSSSSSS",
"SSSSSSSSSSSSSSSSSSSSSSSSSSSSSSSSSSSSSSSSSSSSSSSSSSSSSSSSSSSSSSSSSSSSSS",
"SSSSSSSSSSSSSSSSSSSSSSSSSSSSSSSSSSSSSSSSSSSSSSSSSSSSSSSSSSSSSSSSSSSSSS",
"SSSSSSSSSSSSSSSSSSSSSSSSSSSSSSSSSSSSSSSSSSSSSSSSSSSSSSSSSSSSSSSSSSSSSS",
"SSSSSSSSSSSSSSSSSSSSSSSSSSSSSSSSSSSSSSSSSSSSSSSSSSSSSSSSSSSSSSSSSSSSSS",
"SSSSSSSSSSSSSSSSSSSSSSSSSSSSSSSSSSSSSSSSSSSSSSSSSSSSSSSSSSSSSSSSSSSSSS",
"SSSSSSSSSSSSSSSSSSSSSSSSSSSSSSSSSSSSSSSSSSSSSSSSSSSSSSSSSSSSSSSSSSSSSS",
"SSSSSSSSSSSSSSSSSSSSSSSSSSSSSSSSSSSSSSSSSSSSSSSSSSSSSSSSSSSSSSSSSSSSSS",
"SSSSSSSSSSSSSSSSSSSSSSSSSSSSSSSSSSSSSSSSSSSSSSSSSSSSSSSSSSSSSSSSSSSSSS",
"SSSSSSSSSSSSSSSSSSSSSSSSSSSSSSSSSSSSSSSSSSSSSSSSSSSSSSSSSSSSSSSSSSSSSS",
"SSSSSSSSSSSSSSSSSSSSSSSSSSSSSSSSSSSSSSSSSSSSSSSSSSSSSSSSSSSSSSSSSSSSSS",
"SSSSSSSSSSSSSSSSSSSSSSSSSSSSSSSSSSSSSSSSSSSSSSSSSSSSSSSSSSSSSSSSSSSSSS",
"SSSSSSSSSSSSSSSSSSSSSSSSSSSSSSSSSSSSSSSSSSSSSSSSSSSSSSSSSSSSSSSSSSSSSS",
"SSSSSSSSSSSSSSSSSSSSSSSSSSSSSSSSSSSSSSSSSSSSSSSSSSSSSSSSSSSSSSSSSSSSSS",
"SSSSSSSSSSSSSSSSSSSSSSSSSSSSSSSSSSSSSSSSSSSSSSSSSSSSSSSSSSSSSSSSSSSSSS",
"SSSSSSSSSSSSSSSSSSSSSSSSSSSSSSSSSSSSSSSSSSSSSSSSSSSSSSSSSSSSSSSSSSSSSS",
"SSSSSSSSSSSSSSSSSSSSSSSSSSSSSSSSSSSSSSSSSSSSSSSSSSSSSSSSSSSSSSSSSSSSSS",
"SSSSSSSSSSSSSSSSSSSSSSSSSSSSSSSSSSSSSSSSSSSSSSSSSSSSSSSSSSSSSSSSSSSSSS",
"SSSSSSSSSSSSSSSSSSSSSSSSSSSSSSSSSSSSSSSSSSSSSSSSSSSSSSSSSSSSSSSSSSSSSS",
"SSSSSSSSSSSSSSSSSSSSSSSSSSSSSSSSSSSSSSSSSSSSSSSSSSSSSSSSSSSSSSSSSSSSSS",
"SSSSSSSSSSSSSSSSSSSSSSSSSSSSSSSSSSSSSSSSSSSSSSSSSSSSSSSSSSSSSSSSSSSSSS",
"SSSSSSSSSSSSSSSSSSSSSSSSS0a990099900wvmBVvciSSSSSSSSSSSSSSSSSSSSSSSSSS",
"SSSSSSSSSSSSSSSSSSSSSSSiB9*@;111,dfhfd<0euvVu1SSSSSSSSSSSSSSSSSSSSSSSS",
"SSSSSSSSSSSSSSSSSSSSSSSZAt=::,<dgghjhd<::7ui-+SSSSSSSSSSSSSSSSSSSSSSSS",
"SSSSSSSSSSSSSSSSSSSSSSSZvnBxaaaaa0ree336e75+ +SSSSSSSSSSSSSSSSSSSSSSSS",
"SSSSSSSSSSSSSSSSSSSSSSSZy00099>>>>555-==++ O+=SSSSSSSSSSSSSSSSSSSSSSSS",
"SSSSSSSSSSSSSSSSSSSSSSSAlszlyw03311>*#$O O+++&SSSSSSSSSSSSSSSSSSSSSSSS",
"SSSSSSSSSSSSSSSSSSSSSSSZMxMxlyyww0933*-%@@OO+$SSSSSSSSSSSSSSSSSSSSSSSS",
"SSSSSSSSSSSSSSSSSSSSSSSmbmCnzaaayyww0991*@XO+=SSSSSSSSSSSSSSSSSSSSSSSS",
"SSSSSSSSSSSSSSSSSSSSSSSvwyp00999311>1>*&@o +$-SSSSSSSSSSSSSSSSSSSSSSSS",
"SSSSSSSSSSSSSSSSSSSSSSSmw0821>>*%$+OOOXXOXX+&=SSSSSSSSSSSSSSSSSSSSSSSS",
"SSSSSSSSSSSSSSSSSSSSSSSByyzp031*%%+@OoX OOOO+=SSSSSSSSSSSSSSSSSSSSSSSS",
"SSSSSSSSSSSSSSSSSSSSSSSByyNlww09331>*#$O   O+-SSSSSSSSSSSSSSSSSSSSSSSS",
"SSSSSSSSSSSSSSSSSSSSSSSByyNlyyw0931>*#$O   O+=SSSSSSSSSSSSSSSSSSSSSSSS",
"SSSSSSSSSSSSSSSSSSSSSSSVyyxlyyw0931>*#$O   X+=SSSSSSSSSSSSSSSSSSSSSSSS",
"SSSSSSSSSSSSSSSSSSSSSSSZlszlyyw0931>*#$O   .O&SSSSSSSSSSSSSSSSSSSSSSSS",
"SSSSSSSSSSSSSSSSSSSSSSSZMxxzlyypw0933*-%@oO@ $SSSSSSSSSSSSSSSSSSSSSSSS",
"SSSSSSSSSSSSSSSSSSSSSSSmbBBxzaaayyww0991*@XXX&SSSSSSSSSSSSSSSSSSSSSSSS",
"SSSSSSSSSSSSSSSSSSSSSSSvwyp00999311>1>*&@o XX&SSSSSSSSSSSSSSSSSSSSSSSS",
"SSSSSSSSSSSSSSSSSSSSSSSmwq83>*=&%$+OOOXXOXX+$$SSSSSSSSSSSSSSSSSSSSSSSS",
"SSSSSSSSSSSSSSSSSSSSSSSByazp31-&%%+@OoX OOOO+=SSSSSSSSSSSSSSSSSSSSSSSS",
"SSSSSSSSSSSSSSSSSSSSSSSByaNlww09331>*#$O   O+=SSSSSSSSSSSSSSSSSSSSSSSS",
"SSSSSSSSSSSSSSSSSSSSSSSByaNlyww0931>*#$O   O+=SSSSSSSSSSSSSSSSSSSSSSSS",
"SSSSSSSSSSSSSSSSSSSSSSSZskxlyyw0931>*#$O   O+&SSSSSSSSSSSSSSSSSSSSSSSS",
"SSSSSSSSSSSSSSSSSSSSSSSZxzMzyyypw0933*-%@oOO@$SSSSSSSSSSSSSSSSSSSSSSSS",
"SSSSSSSSSSSSSSSSSSSSSSSmzxBzsaaayyww0991*@XO+&SSSSSSSSSSSSSSSSSSSSSSSS",
"SSSSSSSSSSSSSSSSSSSSSSSvwyp00999311>1>*&@o O$=SSSSSSSSSSSSSSSSSSSSSSSS",
"SSSSSSSSSSSSSSSSSSSSSSSmw0821>*&%$+OOOXXOX O$&SSSSSSSSSSSSSSSSSSSSSSSS",
"SSSSSSSSSSSSSSSSSSSSSSSByyza934&&%+@OoX OO O+&SSSSSSSSSSSSSSSSSSSSSSSS",
"SSSSSSSSSSSSSSSSSSSSSSSBsyxlyw09931>*#$O   O+=SSSSSSSSSSSSSSSSSSSSSSSS",
"SSSSSSSSSSSSSSSSSSSSSSSblyzzyyp009311*&$   OX&SSSSSSSSSSSSSSSSSSSSSSSS",
"SSSSSSSSSSSSSSSSSSSSSSSwyppypqq6311>>*%$XXX+ $SSSSSSSSSSSSSSSSSSSSSSSS",
"SSSSSSSSSSSSSSSSSSSSSSSSS3333&$$$OOOO      $SSSSSSSSSSSSSSSSSSSSSSSSSS"
};
