/* XPM */
static char *result[] = {
/* columns rows colors chars-per-pixel */
"70 62 44 1 ",
"  c black",
". c #170F07",
"X c #131313",
"o c #17330F",
"O c #232323",
"+ c #2F2F2F",
"@ c #373F27",
"# c #430000",
"$ c #470000",
"% c #4F0000",
"& c #530707",
"* c #5B0000",
"= c #5B0707",
"- c #5F0707",
"; c #670000",
": c #670B0B",
"> c #6B0F0F",
", c #730000",
"< c #7F0000",
"1 c #731313",
"2 c #771717",
"3 c #7F1B1B",
"4 c #3F472B",
"5 c #474F33",
"6 c #53573B",
"7 c #5B6347",
"8 c #676B4F",
"9 c #7B7F63",
"0 c #8B0000",
"q c #9B0000",
"w c #831F1F",
"e c #A70000",
"r c #B30000",
"t c #BF0000",
"y c #8B2323",
"u c #972F2F",
"i c #A33B3B",
"p c #CB0000",
"a c #D70000",
"s c #E30000",
"d c #EF0000",
"f c red",
"g c #9F876F",
"h c None",
/* pixels */
"hhhhhhhhhhhhhhhhhhhhhhhhhhhhhhhhhhhhhhhhhhhhhhhhhhhhhhhhhhhhhhhhhhhhhh",
"hhhhhhhhhhhhhhhhhhhhhhhhhhhhhhhhhhhhhhhhhhhhhhhhhhhhhhhhhhhhhhhhhhhhhh",
"hhhhhhhhhhhhhhhhhhhhhhhhhhhhhhhhhhhhhhhhhhhhhhhhhhhhhhhhhhhhhhhhhhhhhh",
"hhhhhhhhhhhhhhhhhhhhhhhhhhhhhhhhhhhhhhhhhhhhhhhhhhhhhhhhhhhhhhhhhhhhhh",
"hhhhhhhhhhhhhhhhhhhhhhhhhhhhhhhhhhhhhhhhhhhhhhhhhhhhhhhhhhhhhhhhhhhhhh",
"hhhhhhhhhhhhhhhhhhhhhhhhhhhhhhhhhhhhhhhhhhhhhhhhhhhhhhhhhhhhhhhhhhhhhh",
"hhhhhhhhhhhhhhhhhhhhhhhhhhhhhhhhhhhhhhhhhhhhhhhhhhhhhhhhhhhhhhhhhhhhhh",
"hhhhhhhhhhhhhhhhhhhhhhhhhhhhhhhhhhhhhhhhhhhhhhhhhhhhhhhhhhhhhhhhhhhhhh",
"hhhhhhhhhhhhhhhhhhhhhhhhhhhhhhhhhhhhhhhhhhhhhhhhhhhhhhhhhhhhhhhhhhhhhh",
"hhhhhhhhhhhhhhhhhhhhhhhhhhhh####**#;;;h;hhhhhhhhhhhhhhhhhhhhhhhhhhhhhh",
"hhhhhhhhhhhhhhhhhhhhhh*h<0<;<00q<0e*#%*,;0;##hhhhhhhhhhhhhhhhhhhhhhhhh",
"hhhhhhhhhhhhhhhhhhhh,,qq00;;,;*$#*<,**%*;*<0;##hhhhhhhhhhhhhhhhhhhhhhh",
"hhhhhhhhhhhhhhhhhhh$*,<qee0<0q<,*;,*####$%***#$###hhhhhhhhhhhhhhhhhhhh",
"hhhhhhhhhhhhhhhhh;h#**,;<qqrtreq<00<<<<***%%%*;#$##hhhhhhhhhhhhhhhhhhh",
"hhhhhhhhhhhhhhhh#;*hh%**<qetpptreeettre<qe0,;<<#$*,%#;#hhhhhhhhhhhhhhh",
"hhhhhhhhhhhhhhh#%;#h#$#*<,qtpadstpppeq<<qrtr0,e,%#%$%*###hhhhhhhhhhhhh",
"hhhhhhhhhhhhhh##e;**#h%;<;qepdddftprq,;;;,0qrq00;#%$%<0$%#hhhhhhhhhhhh",
"hhhhhhhhhhhhhhh#;;*##h;q0qeqqtapreeq<,0;**%%<;<q*$%;#;0qq0*hhhhhhhhhhh",
"hhhhhhhhhhhhhh%%%*#;,*;00eq,,qte0<<;*%;e<,,$#;<<;%%,%#,0qe0hhhhhhhhhhh",
"hhhhhhhhhhhhh%%%#%*0<*;;0q<;*qe0<<q<,$##%*;*%$%,;%%<;##,qeq#hhhhhhhhhh",
"hhhhhhhhhhh%%h%h%*<0<*;*<<;$*q0<0eq**<<,*%*00<<#;*#;;h#%<q0%#hhhhhhhhh",
"hhhhhhhhhhhh*%%h%,<<,*$*<;*$*q0<eq*$%****##%000#%%#**#h#;,,%#hhhhhhhhh",
"hhhhhhhhh%%%q;$#,0q0<%%,<;**,<qeq<,,;,,#####%;*;#h#%$$h#%<,*##hhhhhhhh",
"hhhhhhhhhh,%#,;,,rtr0,*<<;,0<,,*,#$#<q<##hh#h##0#$###hh%%%;<%#hhhhhhhh",
"hhhhhhhhhh%%h0<,<rtr0<;0,,<q,*;,###$$%##h#hhhh#%#####hhhh%;0*#hhhhhhhh",
"hhhhhhhhhhh%h;q,<rtq<,;q,,<<,$,$##hh#####h#h#hh#*;%##hhhh%*0,*hhhhhhhh",
"hhhhhhhhhhh%%<0;<ttq*;*q0<<<0*,%#hhh##hhhhh#hhh#;<*%##%h#%%;<*hhhhhhhh",
"hhhhhhhhhhh#%,<;;rtq<;*qe0eeq,,;hhh###hhhhh##hh#,<*;;;#%#%;%,,hhhhhhhh",
"hhhhhhhhh%%%%*;;*qr00;*qeeeeq,<,hhh%0$hhhhh#hh#*0<*;<;<%%,0#*,hhhhhhhh",
"hhhhhhhhhh*%%h$$%;<<;%%<qepte<00#hh#0qq#hhhh#h#,<,;0<<eq;0q####hhhhhhh",
"hhhhhhhhhh%0%hhh#*<<;%%<<qrte00q##h#;,,##hhhhh$<0;,0;qtrqq0#h##hhhhhhh",
"hhhhhhhhhh%0;%#hh%<0<;%<0<qeeq0q*#hh###hhh#hh#*0,;,,;qtrqq,$hh#hhhhhhh",
"hhhhhhhhhhh*;%<#h**,**h;<qq0<<<q,%h#hhhhhhhhh#,<;;;;qqeqq<,*#h##hhhhhh",
"hhhhhhhh%h%h#%;#*,**;$##*<<,;**0q*hh####hhhhh##<;%%,e0,,0;%,$%##hhhhhh",
"hhhhhhhhhh%h##%#*<;%<%#h##%%##$;<,%hhh##hhhhh#;#%%;0e,$*q,#0;#h#hhhhhh",
"hhhhhhhhhhh######0<;#$hhhh#hhhh%#%%;#%*#hhh####;0qepe*#%<<*0,#hhhhhhhh",
"hhhhhhhhh#h##h#h%qq<%$h$hhh##h%**#h;%%,;%###*,,rpdret;$,qe<**###hhhhhh",
"hhhhhhhhh#hh#####<q0;#h$,$#%0h#;,*hhh%<0<%%;qerdape,q*%<er<#$h##hhhhhh",
"hhhhhhhhhh#*##%*%000,%#h******%#;%#hh#*;;<q0e<qqetq,;;<0ee,#hh#;hhhhhh",
"hhhhhhhhhh#%#h*<,q0<*%##$*;;<000;%hhh##%#;;;;;,qq0<;*<<qqq*#hh#;hhhhhh",
"hhhhhhhh#%;%##<000<<,**#%%$;0q0q<%#h#*0;<;;##*,**;**,<<<0<%hh#;<hhhhhh",
"hhhhhhhh.##h#;,*<<,<<,*%*#$%<0<;;;<;*%%%%*;,;#####$,,;,0,;#h%$,<hhhhhh",
"hhhhhhhhhh##,0,;0,%*,***h%###*%#%%,<<,,<0<<;;%#;<%%;%,e0,%#h#$;hhhhhhh",
"hhhhhhhhhh##0<;,,%%%**%%h#h########*;<<00,****%#%%%;qre<;#hh#hhhhhhhhh",
"hhhhhhhhhhh,,#%<<%*%%;%hhh#h#######,,;,,;***;*%%%#;<00*%%h%hh#hhhhhhhh",
"hhhhhhhhhhh$$#<qq%##hhhhhh##;,######;;;*%;;,,;**%##0<#%%h#%####hhhhhhh",
"hhhhhhhhhhh##;qq<##hh##hh#h#;0;;###%*;,,;,00,<,%#*<*##hh#%%<$##hhhhhhh",
"hhhhhhhhh##%;;<*##hh##hh#####*%###%**<0qqqrrrq,%,*%#hhh##%,,%hhh#hhhhh",
"hhhhhhhhh;q%;;%#hhhhhh#h####h*,%%#%#%;,0qeerq,%*<<*#####$;,#hhhh#hhhhh",
"hhhhhhh##0<%;;%h#hhhh#####;%#*,,,,**,,**;,;;*%%,**##*$$#*;*#hhh#hhhhhh",
"hhhhh#hh%;*#;;%hhhhhh#####<;#,000,,,0,%##%##%**%%$$$,%$$;;%#hh###hhhhh",
"hhhhhhh#%;%#*<*#hh#h#####%0,,0qq<*%%%%##%%;%%*%#$,;;<#%;<*;hh#hh#hhhhh",
"hhhhhhh##%%*#*;*##hhhh$##%*,0000,;%########### X$#%0<%<q,,*h#*.##hhhhh",
"hhhhhhhh##hq;%%##*0rrq<#$h%*<<,;;,;##6#4@oO  ###*0e0,;*;;$#hh%,hhhhhhh",
"hhhhhhhhh#h**%#;;<re<q-###%;,;%#$*,##;>#;2####%*0q0,#$$,;%###;%hhhhhhh",
"hhhhhhhhh#h##$$%;0r<-0r*;*,,;%###%*#=3,3<2%4#%*;00<*$h*,;#h;;,#h#hhhhh",
"hhhhhhhhh,###$-:<2,*,,;*;*;%%##4##$#.&,qqtppe0,<,<<*$$%*$h*<,%h#hhhhhh",
"hhhhhhhhhh*;,&>002,;,;;%%####*###+XXX %-e0wi1330,0<*$###h$,,*#hhhhhhhh",
"hhhhhhhhhh####&;22;,;%;*hhh%,*###87765%#0&#:;uyu3e*##h#hh*%%hhhhhhhhhh",
"hhhhhhhhhhhh#$$%2:*%**;#%%;,<9##9####*<*%#%*;<,;;%*##*#hh##h#hhhhhhhhh",
"hhhhhhhhhhhhh%hhh<,;%##%;*%;%#####g#:;;,;#4%%%:3**#-;#hhhhhhhhhhhhhhhh",
"hhhhhhhhhhhhhhhhhh1hh##%%*%#h6666+OO*:;XX    h*-%%hhhhhhhhhhhhhhhhhhhh"
};
